<?xml version="1.0" encoding="UTF-8"?>
<!DOCTYPE svg PUBLIC "-//W3C//DTD SVG 1.1//EN" "http://www.w3.org/Graphics/SVG/1.1/DTD/svg11.dtd">
<!-- Creator: CorelDRAW 2018 (64-Bit Evaluation Version) -->
<svg xmlns="http://www.w3.org/2000/svg" xml:space="preserve" width="39.6911mm" height="9.4038mm" version="1.1" style="shape-rendering:geometricPrecision; text-rendering:geometricPrecision; image-rendering:optimizeQuality; fill-rule:evenodd; clip-rule:evenodd"
viewBox="0 0 566.97 134.33"
 xmlns:xlink="http://www.w3.org/1999/xlink">
 <defs>
  <style type="text/css">
   <![CDATA[
    .fil4 {fill:#1A1A1A}
    .fil2 {fill:#E6E6E6}
    .fil3 {fill:white}
    .fil1 {fill:#FFF212;fill-rule:nonzero}
    .fil0 {fill:white;fill-rule:nonzero}
   ]]>
  </style>
 </defs>
 <g id="Layer_x0020_1">
  <metadata id="CorelCorpID_0Corel-Layer"/>
  <path class="fil0" d="M206.67 43.01l0 0c0,1.23 -0.34,2.31 -1.02,3.27 -0.68,0.95 -1.5,1.7 -2.45,2.25 -1.7,-1.23 -3.68,-2.33 -5.92,-3.32 -2.25,-0.99 -5.07,-1.48 -8.48,-1.48 -3.88,0 -7.28,0.87 -10.21,2.6 -2.93,1.74 -5.22,4.29 -6.89,7.66 -1.67,3.37 -2.5,7.5 -2.5,12.4 0,7.42 1.84,13.02 5.51,16.8 3.68,3.78 8.58,5.67 14.7,5.67 3.2,0 5.99,-0.46 8.37,-1.38 2.38,-0.92 4.43,-1.96 6.13,-3.11 0.88,0.54 1.65,1.31 2.3,2.3 0.65,0.99 0.97,2.09 0.97,3.32 0,1.09 -0.29,2.08 -0.87,2.96 -0.58,0.88 -1.51,1.7 -2.81,2.45 -1.43,0.88 -3.4,1.68 -5.92,2.4 -2.52,0.71 -5.68,1.07 -9.49,1.07 -5.85,0 -11.16,-1.19 -15.93,-3.57 -4.76,-2.38 -8.54,-5.97 -11.33,-10.77 -2.79,-4.8 -4.19,-10.84 -4.19,-18.12 0,-7.15 1.41,-13.14 4.24,-17.97 2.83,-4.83 6.57,-8.49 11.23,-10.97 4.66,-2.48 9.75,-3.73 15.26,-3.73 3.95,0 7.37,0.44 10.26,1.33 2.89,0.89 5.12,2.03 6.69,3.42 1.57,1.39 2.35,2.91 2.35,4.54zm50.59 30.22l0 0c0,5.24 -1,9.77 -3.01,13.58 -2.01,3.81 -4.85,6.76 -8.53,8.83 -3.68,2.08 -8.03,3.11 -13.07,3.11 -4.97,0 -9.31,-1.04 -13.02,-3.11 -3.71,-2.08 -6.57,-5.02 -8.58,-8.83 -2.01,-3.81 -3.01,-8.34 -3.01,-13.58 0,-5.24 1.02,-9.75 3.06,-13.53 2.04,-3.78 4.92,-6.7 8.63,-8.78 3.71,-2.08 8.05,-3.11 13.02,-3.11 4.9,0 9.19,1.04 12.86,3.11 3.68,2.08 6.53,5.02 8.58,8.83 2.04,3.81 3.06,8.31 3.06,13.48zm-24.61 -16.03l0 0c-3.81,0 -6.84,1.41 -9.09,4.24 -2.25,2.82 -3.37,6.76 -3.37,11.79 0,5.11 1.09,9.05 3.27,11.84 2.18,2.79 5.24,4.19 9.19,4.19 3.95,0 7.03,-1.41 9.24,-4.24 2.21,-2.82 3.32,-6.76 3.32,-11.79 0,-4.97 -1.11,-8.88 -3.32,-11.74 -2.21,-2.86 -5.29,-4.29 -9.24,-4.29zm74.18 8.68l0 10 -11.84 0 0 -9.6c0,-3.13 -0.9,-5.43 -2.71,-6.89 -1.8,-1.46 -4.17,-2.2 -7.1,-2.2 -2.18,0 -4.15,0.27 -5.92,0.82 -1.77,0.54 -3.3,1.19 -4.6,1.94l0 15.93 -11.84 0 0 -16.54c0,-1.63 0.32,-2.96 0.97,-3.98 0.65,-1.02 1.69,-1.97 3.11,-2.86 1.97,-1.29 4.54,-2.4 7.71,-3.32 3.16,-0.92 6.69,-1.38 10.57,-1.38 6.81,0 12.12,1.51 15.93,4.54 3.81,3.03 5.72,7.54 5.72,13.53zm-44.01 4.9l11.84 0 0 26.34c-0.54,0.2 -1.29,0.39 -2.25,0.56 -0.95,0.17 -2.01,0.26 -3.17,0.26 -2.18,0 -3.79,-0.41 -4.85,-1.23 -1.05,-0.82 -1.58,-2.21 -1.58,-4.19l0 -21.75zm32.16 0l11.84 0 0 26.34c-0.48,0.2 -1.21,0.39 -2.2,0.56 -0.99,0.17 -2.06,0.26 -3.22,0.26 -2.18,0 -3.8,-0.41 -4.85,-1.23 -1.06,-0.82 -1.58,-2.21 -1.58,-4.19l0 -21.75zm19.96 -0.41l11.74 0 0 12.46c0,2.31 0.7,3.96 2.09,4.95 1.4,0.99 3.32,1.48 5.77,1.48 1.09,0 2.28,-0.17 3.57,-0.51 1.29,-0.34 2.42,-0.71 3.37,-1.12 0.48,0.54 0.9,1.19 1.28,1.94 0.37,0.75 0.56,1.6 0.56,2.55 0,1.91 -0.92,3.49 -2.76,4.75 -1.84,1.26 -4.66,1.89 -8.47,1.89 -5.31,0 -9.5,-1.17 -12.56,-3.52 -3.06,-2.35 -4.59,-6.25 -4.59,-11.69l0 -13.17zm7.05 -10.82l0 -9.29 20.11 0c0.27,0.41 0.54,1.04 0.82,1.89 0.27,0.85 0.41,1.75 0.41,2.71 0,1.57 -0.37,2.74 -1.12,3.52 -0.75,0.78 -1.74,1.17 -2.96,1.17l-17.25 0zm4.7 13.68l-11.74 0 0 -36.86c0.54,-0.2 1.31,-0.39 2.3,-0.56 0.99,-0.17 2.03,-0.25 3.11,-0.25 2.18,0 3.78,0.39 4.8,1.17 1.02,0.78 1.53,2.19 1.53,4.24l0 32.26zm40.69 16.54l0 0c2.18,0 4.1,-0.22 5.77,-0.66 1.67,-0.44 2.91,-0.94 3.73,-1.48l0 -12.15 -10.62 1.12c-2.86,0.2 -5.04,0.83 -6.54,1.89 -1.5,1.05 -2.25,2.57 -2.25,4.54 0,2.04 0.8,3.68 2.4,4.9 1.6,1.23 4.1,1.84 7.51,1.84zm-0.41 -41.96l0 0c6.53,0 11.74,1.39 15.62,4.19 3.88,2.79 5.82,7.18 5.82,13.17l0 23.69c0,1.57 -0.37,2.81 -1.12,3.73 -0.75,0.92 -1.74,1.75 -2.96,2.5 -1.91,1.09 -4.29,1.99 -7.15,2.71 -2.86,0.71 -6.13,1.07 -9.8,1.07 -6.67,0 -11.93,-1.31 -15.77,-3.93 -3.85,-2.62 -5.77,-6.48 -5.77,-11.59 0,-4.49 1.45,-7.95 4.34,-10.36 2.89,-2.42 7.1,-3.9 12.61,-4.44l13.99 -1.43 0 -2.04c0,-2.79 -0.95,-4.83 -2.86,-6.13 -1.91,-1.29 -4.56,-1.94 -7.96,-1.94 -2.65,0 -5.26,0.36 -7.81,1.07 -2.55,0.71 -4.82,1.55 -6.79,2.5 -0.68,-0.54 -1.28,-1.26 -1.79,-2.14 -0.51,-0.88 -0.77,-1.8 -0.77,-2.76 0,-2.38 1.29,-4.15 3.88,-5.31 1.91,-0.82 4.12,-1.45 6.64,-1.89 2.52,-0.44 5.07,-0.66 7.66,-0.66zm53.45 9.49l0 0c-4.15,0 -7.64,1.38 -10.46,4.14 -2.82,2.76 -4.24,6.76 -4.24,12 0,5.11 1.36,9.02 4.08,11.74 2.72,2.72 6.23,4.08 10.52,4.08 2.59,0 4.76,-0.34 6.53,-1.02 1.77,-0.68 3.34,-1.43 4.7,-2.25 0.95,0.61 1.7,1.31 2.25,2.09 0.54,0.78 0.82,1.75 0.82,2.91 0,2.25 -1.39,4.1 -4.19,5.56 -2.79,1.46 -6.43,2.2 -10.92,2.2 -5.11,0 -9.6,-0.94 -13.48,-2.81 -3.88,-1.87 -6.91,-4.7 -9.09,-8.47 -2.18,-3.78 -3.27,-8.46 -3.27,-14.04 0,-5.72 1.16,-10.48 3.47,-14.29 2.31,-3.81 5.41,-6.65 9.29,-8.53 3.88,-1.87 8.13,-2.81 12.76,-2.81 4.42,0 8.01,0.78 10.77,2.35 2.76,1.57 4.14,3.44 4.14,5.62 0,1.02 -0.27,1.94 -0.82,2.76 -0.54,0.82 -1.19,1.5 -1.94,2.04 -1.36,-0.82 -2.91,-1.57 -4.65,-2.25 -1.74,-0.68 -3.83,-1.02 -6.28,-1.02zm19.56 13.07l11.74 0 0 12.46c0,2.31 0.7,3.96 2.09,4.95 1.4,0.99 3.32,1.48 5.77,1.48 1.09,0 2.28,-0.17 3.57,-0.51 1.29,-0.34 2.42,-0.71 3.37,-1.12 0.48,0.54 0.9,1.19 1.28,1.94 0.37,0.75 0.56,1.6 0.56,2.55 0,1.91 -0.92,3.49 -2.76,4.75 -1.84,1.26 -4.66,1.89 -8.47,1.89 -5.31,0 -9.5,-1.17 -12.56,-3.52 -3.06,-2.35 -4.59,-6.25 -4.59,-11.69l0 -13.17zm7.05 -10.82l0 -9.29 20.11 0c0.27,0.41 0.54,1.04 0.82,1.89 0.27,0.85 0.41,1.75 0.41,2.71 0,1.57 -0.37,2.74 -1.12,3.52 -0.75,0.78 -1.74,1.17 -2.96,1.17l-17.25 0zm4.7 13.68l-11.74 0 0 -36.86c0.54,-0.2 1.31,-0.39 2.3,-0.56 0.99,-0.17 2.03,-0.25 3.11,-0.25 2.18,0 3.78,0.39 4.8,1.17 1.02,0.78 1.53,2.19 1.53,4.24l0 32.26z"/>
  <path class="fil1" d="M493.08 54.45l4.94 0c2.74,0 4.9,-0.61 6.48,-1.83 1.58,-1.22 2.37,-3.03 2.37,-5.42 0,-2.39 -0.75,-4.17 -2.25,-5.32 -1.5,-1.15 -3.65,-1.73 -6.48,-1.73 -0.94,0 -1.84,0.04 -2.69,0.13 -0.86,0.09 -1.65,0.19 -2.37,0.32l0 13.85zm5.39 6.16l-13.02 0 0 -22.64c0,-0.77 0.21,-1.36 0.64,-1.76 0.43,-0.41 1.01,-0.74 1.73,-1 1.33,-0.43 2.93,-0.75 4.81,-0.96 1.88,-0.21 3.64,-0.32 5.26,-0.32 5.6,0 9.78,1.2 12.54,3.59 2.76,2.39 4.14,5.62 4.14,9.68 0,2.69 -0.61,5.05 -1.83,7.06 -1.22,2.01 -3.02,3.57 -5.42,4.68 -2.39,1.11 -5.34,1.67 -8.85,1.67zm-13.02 -3.46l7.7 0 0 16.48c-0.34,0.13 -0.84,0.25 -1.51,0.35 -0.66,0.11 -1.36,0.16 -2.08,0.16 -1.45,0 -2.5,-0.27 -3.14,-0.8 -0.64,-0.53 -0.96,-1.44 -0.96,-2.73l0 -13.47zm38.64 -6.67l0 9.04 -7.44 0 0 -9.49c0,-1.07 0.24,-1.96 0.71,-2.66 0.47,-0.71 1.18,-1.38 2.12,-2.02 1.28,-0.77 2.91,-1.41 4.87,-1.92 1.97,-0.51 4.08,-0.77 6.35,-0.77 3.89,0 5.84,1.18 5.84,3.53 0,0.56 -0.08,1.08 -0.23,1.57 -0.15,0.49 -0.35,0.91 -0.61,1.25 -0.43,-0.09 -0.97,-0.17 -1.64,-0.26 -0.66,-0.09 -1.34,-0.13 -2.02,-0.13 -1.62,0 -3.12,0.18 -4.49,0.55 -1.37,0.36 -2.52,0.8 -3.46,1.31zm-7.44 6.35l7.44 0.45 0 16.35c-0.34,0.13 -0.81,0.25 -1.41,0.35 -0.6,0.11 -1.26,0.16 -1.99,0.16 -1.37,0 -2.38,-0.26 -3.05,-0.77 -0.66,-0.51 -0.99,-1.39 -0.99,-2.63l0 -13.92zm50.32 1.8l0 0c0,3.29 -0.63,6.14 -1.89,8.53 -1.26,2.39 -3.05,4.24 -5.35,5.55 -2.31,1.3 -5.05,1.96 -8.21,1.96 -3.12,0 -5.85,-0.65 -8.18,-1.96 -2.33,-1.3 -4.13,-3.15 -5.39,-5.55 -1.26,-2.39 -1.89,-5.24 -1.89,-8.53 0,-3.29 0.64,-6.12 1.92,-8.5 1.28,-2.37 3.09,-4.21 5.42,-5.52 2.33,-1.3 5.06,-1.96 8.18,-1.96 3.08,0 5.77,0.65 8.08,1.96 2.31,1.3 4.11,3.15 5.39,5.55 1.28,2.39 1.92,5.22 1.92,8.47zm-15.46 -10.07l0 0c-2.4,0 -4.3,0.89 -5.71,2.66 -1.41,1.78 -2.12,4.25 -2.12,7.41 0,3.21 0.68,5.69 2.05,7.44 1.37,1.75 3.29,2.63 5.77,2.63 2.48,0 4.41,-0.89 5.8,-2.66 1.39,-1.78 2.08,-4.25 2.08,-7.41 0,-3.12 -0.7,-5.58 -2.08,-7.38 -1.39,-1.8 -3.33,-2.69 -5.8,-2.69z"/>
  <path class="fil2" d="M69.24 4.04c35.98,0 65.15,29.17 65.15,65.15 0,35.98 -29.17,65.15 -65.15,65.15 -35.98,0 -65.15,-29.17 -65.15,-65.15 0,-35.98 29.17,-65.15 65.15,-65.15z"/>
  <path class="fil3" d="M65.15 0c35.98,0 65.15,29.17 65.15,65.15 0,35.98 -29.17,65.15 -65.15,65.15 -35.98,0 -65.15,-29.17 -65.15,-65.15 0,-35.98 29.17,-65.15 65.15,-65.15z"/>
  <path class="fil4" d="M93.23 87.22l-31.59 0c-14.51,0 -26.39,-11.88 -26.39,-26.39 0,-14.51 11.88,-26.39 26.39,-26.39l30.03 0 0 5.5 -30.03 0c-11.49,0 -20.89,9.4 -20.89,20.89 0,11.49 9.4,20.89 20.89,20.89l31.59 0 0 5.5z"/>
  <path class="fil4" d="M72.45 71.65l-10.82 0c-5.95,0 -10.82,-4.87 -10.82,-10.82 0,-5.95 4.87,-10.82 10.82,-10.82l40.51 0 0 5.5 -40.51 0c-2.93,0 -5.32,2.39 -5.32,5.32 0,2.93 2.39,5.32 5.32,5.32l10.82 0 0 5.5z"/>
  <polygon class="fil4" points="96.19,71.65 96.19,66.16 102.09,66.16 102.09,71.65 "/>
  <polygon class="fil4" points="77.14,71.65 77.14,66.16 91.23,66.16 91.23,71.65 "/>
  <path class="fil4" d="M98.09 99.53l-36.55 0c-21.28,0 -38.69,-17.41 -38.69,-38.69 0,-21.28 17.41,-38.69 38.69,-38.69l13.11 0 0 5.07 -13.11 0c-18.49,0 -33.62,15.13 -33.62,33.62 0,18.49 15.13,33.62 33.62,33.62l36.55 0 0 5.07z"/>
 </g>
</svg>
